<svg width="400" height="400" viewBox="0 0 400 400" fill="none" xmlns="http://www.w3.org/2000/svg">
<rect width="400" height="400" fill="black"/>
<path d="M267.916 85.7656H129.725V96.2361H267.916V85.7656Z" fill="white"/>
<path d="M320.362 100.289H272.443V105.524H320.362V100.289Z" fill="white"/>
<path d="M129.724 100.289H79.6357V105.524H129.724V100.289Z" fill="white"/>
<path d="M267.916 120.951H129.725V131.422H267.916V120.951Z" fill="white"/>
<path d="M320.362 135.479H272.443V140.714H320.362V135.479Z" fill="white"/>
<path d="M129.724 135.479H79.6357V140.714H129.724V135.479Z" fill="white"/>
<path d="M201.131 156.094H129.725V166.564H201.131V156.094Z" fill="white"/>
<path d="M320.363 170.615H204.387V175.85H320.363V170.615Z" fill="white"/>
<path d="M129.724 170.615H79.6357V175.85H129.724V170.615Z" fill="white"/>
<path d="M267.916 191.275H129.725V201.746H267.916V191.275Z" fill="white"/>
<path d="M320.362 205.801H272.443V211.036H320.362V205.801Z" fill="white"/>
<path d="M129.724 205.801H79.6357V211.036H129.724V205.801Z" fill="white"/>
<path d="M267.916 226.41H129.725V236.881H267.916V226.41Z" fill="white"/>
<path d="M320.362 240.938H272.443V246.173H320.362V240.938Z" fill="white"/>
<path d="M129.724 240.938H79.6357V246.173H129.724V240.938Z" fill="white"/>
<path d="M201.131 260.035H129.725V270.506H201.131V260.035Z" fill="white"/>
<path d="M320.363 274.562H204.387V279.798H320.363V274.562Z" fill="white"/>
<path d="M129.724 274.562H79.6357V279.798H129.724V274.562Z" fill="white"/>
<path d="M201.131 294.473H129.725V304.943H201.131V294.473Z" fill="white"/>
<path d="M320.363 308.996H204.387V314.231H320.363V308.996Z" fill="white"/>
<path d="M129.724 308.996H79.6357V314.231H129.724V308.996Z" fill="white"/>
</svg>
