<svg width="800" height="800" viewBox="0 0 800 800" fill="none" xmlns="http://www.w3.org/2000/svg">
     <g clip-path="url(#clip0_417_190)">
          <circle cx="400" cy="400" r="400" fill="black" />
          <path
               d="M263.672 390.985L402.018 152.326C403.055 150.558 405.607 150.558 406.618 152.326L442.567 215.42C443.152 216.465 442.992 217.805 442.141 218.662L267.846 394.253C265.639 396.477 262.103 393.718 263.672 391.012V390.985Z"
               fill="#CD398A" />
          <path
               d="M308.247 381.246L449.949 238.688C451.147 237.484 453.169 237.698 454.074 239.142L481.749 283.408C482.547 284.691 482.121 286.376 480.817 287.152L311.44 385.445C308.753 386.996 306.038 383.439 308.221 381.246H308.247Z"
               fill="#5A3DB8" />
          <path
               d="M319.161 404.868L487.958 306.669C489.155 305.975 490.698 306.322 491.497 307.47L522.148 352.671C523.186 354.193 522.414 356.276 520.632 356.756L321.21 409.754C318.203 410.555 316.5 406.416 319.188 404.868H319.161Z"
               fill="#39B8E8" />
          <path
               d="M324.779 428.236L528.905 373.581C530.049 373.288 531.247 373.768 531.859 374.783L565.148 429.838C566.212 431.627 564.935 433.896 562.859 433.896L325.418 433.496C322.304 433.496 321.719 429.064 324.726 428.236H324.779Z"
               fill="#32AD32" />
          <path
               d="M328.481 454.234L573.681 454.879C574.585 454.879 575.436 455.363 575.914 456.142L624.588 534.549C625.864 536.617 623.976 539.196 621.664 538.578L327.789 459.526C324.786 458.72 325.37 454.234 328.481 454.234Z"
               fill="#EFBB3F" />
          <path
               d="M235.792 455.555L586.843 545.706C589.85 546.512 589.291 551 586.178 551H177.664C175.562 551 174.285 548.635 175.429 546.861L232.866 456.71C233.478 455.743 234.675 455.259 235.766 455.555H235.792Z"
               fill="#EC352F" />
     </g>
     <defs>
          <clipPath id="clip0_417_190">
               <rect width="800" height="800" fill="white" />
          </clipPath>
     </defs>
</svg>