<svg width="800" height="800" viewBox="0 0 800 800" fill="none" xmlns="http://www.w3.org/2000/svg">
     <g clip-path="url(#clip0_419_362)">
          <rect width="800" height="800" fill="black" />
          <circle cx="400" cy="400" r="400" fill="black" />
          <path
               d="M263.672 412.985L402.018 174.326C403.055 172.558 405.607 172.558 406.618 174.326L442.567 237.42C443.152 238.465 442.992 239.805 442.141 240.662L267.846 416.253C265.639 418.477 262.103 415.718 263.672 413.012V412.985Z"
               fill="#CD398A" />
          <path
               d="M308.247 403.246L449.949 260.688C451.147 259.484 453.169 259.698 454.074 261.142L481.749 305.408C482.547 306.691 482.121 308.376 480.817 309.152L311.44 407.445C308.753 408.996 306.038 405.439 308.221 403.246H308.247Z"
               fill="#5A3DB8" />
          <path
               d="M319.161 426.868L487.958 328.669C489.155 327.975 490.698 328.322 491.497 329.47L522.148 374.671C523.186 376.193 522.414 378.276 520.632 378.756L321.21 431.754C318.203 432.555 316.5 428.416 319.188 426.868H319.161Z"
               fill="#39B8E8" />
          <path
               d="M324.779 450.236L528.905 395.581C530.049 395.288 531.247 395.768 531.859 396.783L565.148 451.838C566.212 453.627 564.935 455.896 562.86 455.896L325.418 455.496C322.305 455.496 321.719 451.064 324.726 450.236H324.779Z"
               fill="#32AD32" />
          <path
               d="M328.481 476.234L573.682 476.879C574.586 476.879 575.436 477.363 575.915 478.142L624.588 556.549C625.864 558.617 623.977 561.196 621.664 560.578L327.79 481.526C324.786 480.72 325.371 476.234 328.481 476.234Z"
               fill="#EFBB3F" />
          <path
               d="M235.792 477.555L586.843 567.706C589.85 568.512 589.291 573 586.178 573H177.664C175.562 573 174.285 570.635 175.429 568.861L232.866 478.71C233.478 477.743 234.675 477.259 235.766 477.555H235.792Z"
               fill="#EC352F" />
     </g>
     <defs>
          <clipPath id="clip0_419_362">
               <rect width="800" height="800" fill="white" />
          </clipPath>
     </defs>
</svg>